<svg xmlns="http://www.w3.org/2000/svg" viewBox="0 0 180 180" width="180" height="180" role="img" aria-label="CabinCast Pro social profile icon">
  <title>CabinCast Pro social icon</title>
  <rect x="0" y="0" width="180" height="180" rx="20" fill="#0a3d3f"/>
  <g transform="translate(90, 90)">
    <rect x="-65" y="-50" width="130" height="80" rx="8" fill="#fbf8f1"/>
    <rect x="-60" y="-45" width="120" height="70" rx="4" fill="#e0b94d"/>
    <path d="M -60 14 L -38 -10 L -22 0 L 0 -22 L 22 -5 L 42 -15 L 60 14 L 60 25 L -60 25 Z" fill="#1e4d3a"/>
    <path d="M -60 18 L -38 8 L -10 15 L 18 5 L 45 12 L 60 8 L 60 25 L -60 25 Z" fill="#0a3d3f" opacity="0.7"/>
    <circle cx="-40" cy="-30" r="5" fill="#fbf8f1" opacity="0.95"/>
    <circle cx="-20" cy="-32" r="1.2" fill="#fbf8f1" opacity="0.6"/>
    <circle cx="5" cy="-34" r="1.5" fill="#fbf8f1" opacity="0.7"/>
    <circle cx="30" cy="-30" r="1.2" fill="#fbf8f1" opacity="0.6"/>
    <rect x="-5" y="30" width="10" height="12" fill="#fbf8f1"/>
    <rect x="-25" y="42" width="50" height="5" rx="2" fill="#fbf8f1"/>
    <text x="0" y="68" text-anchor="middle" font-family="Georgia, 'Times New Roman', serif" font-weight="700" font-size="14" fill="#fbf8f1">CabinCast <tspan font-style="italic" font-weight="400" fill="#e0b94d">Pro</tspan></text>
  </g>
</svg>
