<svg xmlns="http://www.w3.org/2000/svg" viewBox="0 0 600 180" width="600" height="180" role="img" aria-label="CabinCast Pro logo">
  <title>CabinCast Pro</title>
  <desc>Modern flat-screen TV displaying a mountain landscape, paired with the CabinCast Pro wordmark and Smart Welcome Screens tagline.</desc>
  <g transform="translate(40, 40)">
    <rect x="0" y="0" width="120" height="72" rx="6" fill="#0a3d3f"/>
    <rect x="3" y="3" width="114" height="66" rx="3" fill="#e0b94d"/>
    <path d="M 3 55 L 22 34 L 38 44 L 58 24 L 80 40 L 100 30 L 117 55 L 117 66 L 3 66 Z" fill="#1e4d3a"/>
    <path d="M 3 61 L 18 49 L 42 57 L 66 48 L 95 53 L 117 50 L 117 66 L 3 66 Z" fill="#0a3d3f" opacity="0.7"/>
    <circle cx="26" cy="16" r="4" fill="#fbf8f1" opacity="0.95"/>
    <circle cx="42" cy="14" r="1" fill="#fbf8f1" opacity="0.6"/>
    <circle cx="55" cy="12" r="1.2" fill="#fbf8f1" opacity="0.7"/>
    <circle cx="78" cy="16" r="0.8" fill="#fbf8f1" opacity="0.5"/>
    <circle cx="95" cy="10" r="1" fill="#fbf8f1" opacity="0.6"/>
    <rect x="56" y="72" width="8" height="9" fill="#0a3d3f"/>
    <rect x="38" y="81" width="44" height="4" rx="2" fill="#0a3d3f"/>
    <text x="300" y="42" text-anchor="middle" font-family="Georgia, 'Times New Roman', serif" font-weight="700" font-size="42" fill="#0a3d3f">CabinCast <tspan font-style="italic" font-weight="400" fill="#c9a449">Pro</tspan></text>
    <text x="300" y="64" text-anchor="middle" font-family="Helvetica Neue, Arial, sans-serif" font-size="10" fill="#4a7c59" letter-spacing="0.25em" font-weight="600">SMART WELCOME SCREENS</text>
  </g>
</svg>
