<svg xmlns="http://www.w3.org/2000/svg" viewBox="0 0 290 230" width="290" height="230" role="img" aria-label="CabinCast Pro vertical stacked logo">
  <title>CabinCast Pro stacked</title>
  <g transform="translate(145, 35)">
    <rect x="-75" y="0" width="150" height="88" rx="7" fill="#0a3d3f"/>
    <rect x="-71" y="4" width="142" height="80" rx="3" fill="#e0b94d"/>
    <path d="M -71 68 L -47 42 L -29 54 L -3 30 L 25 50 L 49 38 L 71 68 L 71 80 L -71 80 Z" fill="#1e4d3a"/>
    <path d="M -71 75 L -53 60 L -25 70 L 5 58 L 41 66 L 71 62 L 71 80 L -71 80 Z" fill="#0a3d3f" opacity="0.7"/>
    <circle cx="-43" cy="20" r="5" fill="#fbf8f1" opacity="0.95"/>
    <circle cx="-23" cy="18" r="1.2" fill="#fbf8f1" opacity="0.6"/>
    <circle cx="-7" cy="16" r="1.5" fill="#fbf8f1" opacity="0.7"/>
    <circle cx="23" cy="20" r="1" fill="#fbf8f1" opacity="0.5"/>
    <circle cx="45" cy="14" r="1.2" fill="#fbf8f1" opacity="0.6"/>
    <rect x="-4" y="88" width="8" height="12" fill="#0a3d3f"/>
    <rect x="-25" y="100" width="50" height="4" rx="2" fill="#0a3d3f"/>
    <text x="0" y="148" text-anchor="middle" font-family="Georgia, 'Times New Roman', serif" font-weight="700" font-size="30" fill="#0a3d3f">CabinCast <tspan font-style="italic" font-weight="400" fill="#c9a449">Pro</tspan></text>
    <text x="0" y="175" text-anchor="middle" font-family="Helvetica Neue, Arial, sans-serif" font-size="9" fill="#4a7c59" letter-spacing="0.3em" font-weight="600">SMART WELCOME SCREENS</text>
  </g>
</svg>
