<svg xmlns="http://www.w3.org/2000/svg" viewBox="0 0 140 110" width="140" height="110" role="img" aria-label="CabinCast Pro icon">
  <title>CabinCast Pro icon</title>
  <g transform="translate(10, 10)">
    <rect x="0" y="0" width="120" height="72" rx="6" fill="#0a3d3f"/>
    <rect x="3" y="3" width="114" height="66" rx="3" fill="#e0b94d"/>
    <path d="M 3 55 L 22 34 L 38 44 L 58 24 L 80 40 L 100 30 L 117 55 L 117 66 L 3 66 Z" fill="#1e4d3a"/>
    <path d="M 3 61 L 18 49 L 42 57 L 66 48 L 95 53 L 117 50 L 117 66 L 3 66 Z" fill="#0a3d3f" opacity="0.7"/>
    <circle cx="26" cy="16" r="4" fill="#fbf8f1" opacity="0.95"/>
    <circle cx="42" cy="14" r="1" fill="#fbf8f1" opacity="0.6"/>
    <circle cx="55" cy="12" r="1.2" fill="#fbf8f1" opacity="0.7"/>
    <circle cx="78" cy="16" r="0.8" fill="#fbf8f1" opacity="0.5"/>
    <circle cx="95" cy="10" r="1" fill="#fbf8f1" opacity="0.6"/>
    <rect x="56" y="72" width="8" height="9" fill="#0a3d3f"/>
    <rect x="38" y="81" width="44" height="4" rx="2" fill="#0a3d3f"/>
  </g>
</svg>
